<svg xmlns="http://www.w3.org/2000/svg" viewBox="0 0 32 32" id="form"><g data-name="Layer 2"><path d="M23 2H9a3 3 0 0 0-3 3v22a3 3 0 0 0 3 3h14a3 3 0 0 0 3-3V5a3 3 0 0 0-3-3Zm1 25a1 1 0 0 1-1 1H9a1 1 0 0 1-1-1V5a1 1 0 0 1 1-1h14a1 1 0 0 1 1 1Z"></path><path d="M21 8H11a1 1 0 0 0 0 2h10a1 1 0 0 0 0-2zm0 4H11a1 1 0 0 0 0 2h10a1 1 0 0 0 0-2zm0 4H11a1 1 0 0 0 0 2h10a1 1 0 0 0 0-2zm-.534 6.716a1 1 0 0 0-1.336 0l-.53.484-.53-.478a1 1 0 0 0-1.339 0l-.529.477-.529-.477a1 1 0 0 0-1.342 1.478l1.2 1.08a1 1 0 0 0 1.339 0l.527-.476.529.476a1 1 0 0 0 1.338 0l.535-.48.534.48a1 1 0 1 0 1.335-1.48z"></path></g></svg>