<?xml version="1.0" standalone="no"?>
<!DOCTYPE svg PUBLIC "-//W3C//DTD SVG 20010904//EN"
 "http://www.w3.org/TR/2001/REC-SVG-20010904/DTD/svg10.dtd">
<svg version="1.0" xmlns="http://www.w3.org/2000/svg"
 width="225.000000pt" height="225.000000pt" viewBox="0 0 225.000000 225.000000"
 preserveAspectRatio="xMidYMid meet">

<g transform="translate(0.000000,225.000000) scale(0.100000,-0.100000)"
fill="#000000" stroke="none">
<path d="M1012 2203 c-27 -4 -33 -8 -30 -26 2 -17 10 -22 33 -22 17 0 31 -4
32 -10 2 -5 -13 -10 -32 -10 -19 0 -35 -3 -35 -7 0 -5 20 -8 45 -8 41 0 45 2
45 25 0 23 -4 25 -40 25 -22 0 -40 5 -40 10 0 6 18 10 41 10 24 0 38 4 34 10
-3 6 -9 9 -13 8 -4 0 -22 -3 -40 -5z"/>
<path d="M1197 2204 c-4 -4 -7 -24 -7 -44 0 -36 1 -38 42 -43 49 -7 58 -3 58
24 0 14 -7 19 -27 18 -17 -1 -21 -3 -10 -6 27 -7 20 -23 -11 -23 -36 0 -40 4
-34 36 4 24 8 26 43 21 22 -3 39 -1 39 4 0 5 -13 9 -29 9 -16 0 -36 2 -43 5
-8 3 -17 2 -21 -1z"/>
<path d="M861 2158 c-4 -13 -11 -36 -15 -53 -6 -29 -6 -29 9 -10 11 14 27 19
56 19 l40 -1 -32 33 c-39 40 -47 42 -58 12z m29 -28 c-18 -11 -24 -6 -16 16 5
14 9 15 19 5 9 -9 9 -14 -3 -21z"/>
<path d="M1352 2147 c-31 -32 -45 -60 -19 -39 16 14 58 4 74 -17 11 -14 12
-14 13 2 0 17 -26 87 -33 87 -1 0 -17 -15 -35 -33z m42 -26 c-2 -2 -11 -1 -20
3 -14 5 -14 9 -3 22 12 14 14 14 20 -3 3 -10 5 -20 3 -22z"/>
<path d="M763 2147 c-37 -14 -59 -33 -26 -23 18 6 23 1 34 -29 7 -19 17 -31
21 -27 5 5 3 21 -3 36 -11 23 -10 28 7 41 23 17 11 18 -33 2z"/>
<path d="M1471 2109 c-16 -45 -15 -46 25 -59 44 -15 55 -7 14 10 -31 13 -32
17 -13 68 3 6 1 12 -5 12 -6 0 -15 -14 -21 -31z"/>
<path d="M670 2105 c0 -12 35 -75 42 -75 11 0 10 4 -9 45 -14 29 -33 47 -33
30z"/>
<path d="M582 2060 c-34 -21 -37 -27 -23 -48 7 -12 14 -11 41 3 17 9 35 14 38
10 8 -8 -40 -45 -50 -39 -3 2 -9 0 -13 -6 -10 -16 20 -12 54 8 33 18 39 33 18
50 -8 7 -19 6 -37 -3 -30 -17 -40 -18 -40 -5 0 6 14 17 31 24 17 7 27 16 22
19 -5 3 -24 -3 -41 -13z"/>
<path d="M1588 2057 c-37 -22 -53 -45 -23 -33 20 7 65 -14 65 -31 0 -7 5 -13
11 -13 13 0 8 92 -6 96 -6 2 -27 -7 -47 -19z m42 -17 c0 -13 -5 -18 -15 -14
-16 7 -19 17 -8 27 12 13 23 7 23 -13z"/>
<path d="M1000 1940 l0 -99 -42 -11 c-76 -19 -157 -52 -204 -82 l-47 -29 -74
73 -73 73 -85 -85 c-47 -47 -85 -89 -85 -95 0 -6 31 -41 69 -79 l68 -68 -33
-55 c-30 -51 -63 -136 -78 -205 l-6 -28 -100 0 -100 0 0 -125 0 -125 100 0 99
0 11 -42 c18 -70 46 -140 78 -193 l30 -50 -71 -73 -72 -72 90 -90 90 -90 71
71 71 70 69 -38 c38 -20 103 -47 144 -59 l75 -22 3 -101 3 -101 44 0 45 0 0
209 0 209 -71 16 c-168 38 -308 161 -364 321 -23 65 -30 196 -15 268 38 184
202 344 388 379 l62 12 0 208 0 208 -45 0 -45 0 0 -100z"/>
<path d="M1150 1930 c0 -98 2 -110 18 -110 16 -1 16 -1 0 -11 -16 -9 -18 -29
-18 -179 l0 -170 45 0 c48 0 95 19 132 52 l22 20 -11 -34 c-20 -65 25 -158 93
-193 15 -8 50 -15 76 -15 l48 -1 -28 -20 c-59 -45 -83 -140 -53 -212 7 -18 29
-47 50 -64 l36 -33 -28 6 c-109 22 -222 -98 -194 -208 l10 -38 -34 30 c-19 16
-47 32 -62 36 -15 3 -33 8 -40 10 -8 2 -24 1 -38 -2 l-24 -6 0 -169 c0 -125 3
-169 12 -169 9 0 9 -3 0 -12 -8 -8 -12 -50 -12 -121 l0 -110 64 7 c378 39 695
309 798 681 18 67 22 106 22 235 -1 140 -3 164 -28 244 -81 268 -262 478 -504
588 -84 38 -239 78 -303 78 l-49 0 0 -110z m195 -150 c82 -28 175 -82 231
-135 40 -37 43 -42 19 -30 -71 35 -150 27 -202 -23 l-30 -27 5 46 c6 64 -12
111 -59 153 -45 42 -42 43 36 16z m370 -300 c44 -73 84 -186 90 -260 5 -45 4
-51 -5 -30 -14 33 -58 78 -92 96 -15 8 -48 14 -73 14 l-47 0 32 26 c56 48 78
120 56 184 -18 53 -5 43 39 -30z m80 -505 c-16 -76 -78 -211 -115 -255 l-21
-25 12 24 c30 62 7 156 -52 211 l-30 27 31 -5 c46 -7 115 24 150 66 16 20 31
43 31 52 1 10 3 10 6 -3 3 -10 -3 -51 -12 -92z m-358 -344 c32 -16 119 -14
155 5 43 22 27 2 -40 -49 -64 -50 -141 -91 -221 -118 -71 -25 -81 -24 -41 4
59 40 75 71 75 147 l0 69 25 -23 c14 -13 35 -29 47 -35z"/>
<path d="M1702 2023 c16 -15 16 -18 -4 -45 -11 -16 -17 -32 -13 -36 4 -4 16 6
27 21 15 20 26 26 42 22 16 -5 13 1 -14 24 -37 32 -66 43 -38 14z"/>
<path d="M449 1966 l-27 -23 25 -32 c13 -17 29 -31 35 -31 7 0 6 5 -2 15 -17
21 -3 35 29 29 16 -4 32 -1 35 5 4 7 -1 11 -12 11 -13 0 -18 7 -18 23 1 31
-32 33 -65 3z m41 -21 c-12 -15 -40 -21 -40 -8 0 3 8 15 17 25 21 23 43 7 23
-17z"/>
<path d="M1777 1929 c-14 -18 -24 -36 -21 -38 8 -9 57 46 52 60 -2 7 -14 -1
-31 -22z"/>
<path d="M1825 1880 l-29 -30 29 -30 c16 -16 33 -30 39 -30 5 0 -3 13 -18 29
-28 29 -20 55 9 31 10 -8 15 -9 15 -2 0 6 -5 14 -10 17 -6 4 -8 11 -4 17 4 5
19 -2 37 -19 l31 -28 -25 34 c-14 19 -30 36 -35 38 -6 2 -23 -10 -39 -27z"/>
<path d="M347 1872 l-27 -28 34 -33 33 -32 27 32 c15 17 24 34 22 37 -3 3 -14
-6 -24 -18 -12 -14 -24 -20 -31 -15 -9 5 -10 10 -2 18 17 17 13 31 -4 17 -26
-22 -30 -1 -5 25 13 14 19 25 14 25 -6 0 -22 -13 -37 -28z"/>
<path d="M290 1801 c0 -7 7 -26 16 -43 l16 -30 -41 7 c-24 4 -41 3 -41 -3 0
-10 79 -24 91 -16 5 2 0 22 -10 44 -20 45 -31 59 -31 41z"/>
<path d="M1920 1781 c-19 -17 -30 -30 -23 -31 6 0 15 5 18 10 14 23 25 7 25
-35 0 -25 3 -45 6 -45 3 0 19 9 35 21 35 25 39 46 5 23 l-25 -16 -3 52 -3 51
-35 -30z"/>
<path d="M210 1682 c0 -12 68 -48 75 -40 3 3 -10 15 -30 27 -40 23 -45 25 -45
13z"/>
<path d="M2020 1660 c-12 -8 -13 -14 -3 -41 7 -18 10 -35 7 -38 -7 -8 -34 29
-34 46 0 7 -4 13 -10 13 -13 0 -13 -3 7 -45 13 -26 23 -35 38 -33 21 3 23 19
10 68 l-7 25 21 -24 c12 -12 18 -27 15 -32 -3 -5 0 -9 5 -9 16 0 14 14 -6 49
-20 34 -21 35 -43 21z"/>
<path d="M180 1621 c0 -5 10 -15 23 -24 22 -15 22 -15 -20 -32 -24 -9 -43 -20
-43 -24 0 -7 64 -41 75 -41 17 0 0 20 -22 28 l-28 9 50 25 49 25 -42 22 c-23
12 -42 17 -42 12z"/>
<path d="M995 1530 c-304 -97 -394 -485 -164 -705 62 -60 137 -100 212 -114
l47 -8 0 423 c0 483 11 437 -95 404z"/>
<path d="M2068 1523 c-21 -8 -38 -19 -38 -24 0 -12 1 -12 44 6 20 8 36 20 36
25 0 12 4 13 -42 -7z"/>
<path d="M140 1454 c44 -20 42 -17 34 -48 -5 -20 -11 -25 -25 -21 -11 3 -28 8
-39 11 -37 10 -20 -13 17 -24 42 -13 46 -11 62 37 14 42 7 50 -45 56 l-39 5
35 -16z"/>
<path d="M2108 1463 c-21 -5 -21 -7 -9 -51 7 -24 7 -32 -4 -32 -15 0 -29 45
-19 62 4 6 1 9 -7 6 -26 -9 2 -91 29 -86 13 3 16 12 14 46 -3 51 14 56 24 7 3
-19 10 -33 14 -30 9 5 -7 64 -19 76 -3 3 -14 4 -23 2z"/>
<path d="M2047 735 c-21 -45 -22 -42 13 -60 40 -21 44 -20 64 21 21 45 14 58
-9 15 -19 -39 -37 -41 -30 -3 l6 27 -14 -24 c-18 -30 -31 -12 -17 25 16 40 6
39 -13 -1z"/>
<path d="M145 743 c-26 -15 -28 -18 -10 -21 11 -2 26 -11 34 -20 12 -15 13
-14 7 11 -9 39 16 35 32 -5 6 -17 14 -29 17 -26 9 9 -25 78 -38 78 -6 -1 -25
-8 -42 -17z"/>
<path d="M186 623 c15 -17 22 -33 18 -45 -3 -10 -2 -18 3 -18 12 0 53 76 46
84 -4 3 -26 6 -49 6 l-43 0 25 -27z m47 2 c-6 -17 -25 -15 -31 3 -2 7 5 12 17
12 14 0 19 -5 14 -15z"/>
<path d="M2000 645 c0 -6 62 -45 73 -45 17 0 5 16 -24 33 -31 17 -49 22 -49
12z"/>
<path d="M1952 567 l-23 -32 28 -22 c16 -13 35 -23 43 -23 12 1 12 3 -2 14
-20 15 -6 36 23 36 10 0 21 5 25 12 5 7 0 9 -14 6 -15 -4 -19 -2 -15 9 6 15
-12 33 -32 33 -5 0 -20 -15 -33 -33z m48 5 c0 -17 -28 -45 -38 -38 -9 5 -8 12
1 26 12 20 37 28 37 12z"/>
<path d="M253 553 c-29 -19 -28 -31 2 -68 19 -23 27 -27 37 -17 9 9 9 12 -3
12 -8 0 -20 10 -28 22 -12 19 -11 24 9 40 22 17 23 17 36 1 7 -10 14 -26 14
-35 0 -21 20 -25 20 -4 0 18 -39 66 -53 65 -7 0 -22 -7 -34 -16z"/>
<path d="M1875 471 l-28 -30 29 -25 c37 -32 40 -32 69 2 34 38 31 52 -4 18
-17 -16 -31 -23 -35 -18 -4 6 -2 13 4 17 5 3 10 11 10 17 0 6 -8 4 -18 -5 -27
-25 -36 -7 -10 20 12 12 19 25 16 28 -2 3 -17 -8 -33 -24z"/>
<path d="M348 455 c-16 -13 -28 -30 -28 -38 0 -14 41 -57 54 -57 15 0 66 49
57 54 -4 3 -19 -6 -31 -19 l-24 -25 -23 22 -23 22 27 28 c34 35 27 44 -9 13z"/>
<path d="M1830 385 l23 -25 -46 0 c-25 0 -48 -3 -50 -8 -7 -10 42 -66 50 -58
3 3 -2 15 -12 26 -18 20 -18 20 33 20 29 0 52 4 52 8 0 11 -54 62 -65 62 -5 0
2 -11 15 -25z"/>
<path d="M448 363 c-29 -35 -30 -44 -7 -69 12 -13 27 -24 32 -24 6 0 0 11 -13
25 l-23 25 21 23 c12 13 22 26 22 30 0 13 -17 7 -32 -10z"/>
<path d="M520 333 c0 -5 5 -14 11 -20 8 -8 6 -18 -6 -37 -24 -36 -13 -44 13
-11 18 22 24 25 41 15 12 -6 21 -7 21 -3 -1 11 -80 66 -80 56z"/>
<path d="M1720 290 c23 -33 40 -46 40 -32 0 14 -40 62 -51 62 -6 0 -1 -13 11
-30z"/>
<path d="M1627 267 c-20 -11 -37 -26 -37 -32 0 -8 16 -36 36 -63 3 -5 84 42
84 49 0 3 -6 13 -13 22 -11 16 -14 16 -32 2 -20 -16 -20 -16 3 -10 30 9 28 -9
-4 -30 -24 -16 -26 -16 -40 2 -21 28 -17 40 22 55 21 8 33 18 28 21 -6 3 -26
-4 -47 -16z"/>
<path d="M590 237 l-35 -22 27 -3 c15 -2 37 -15 48 -29 l20 -26 0 52 c0 58 -6
61 -60 28z m50 -12 c0 -8 -6 -15 -14 -15 -20 0 -29 17 -14 23 22 9 28 7 28 -8z"/>
<path d="M703 216 c17 -13 17 -16 2 -45 -8 -17 -11 -31 -6 -31 6 0 17 13 26
29 11 22 20 28 37 25 13 -2 5 4 -17 15 -47 23 -68 26 -42 7z"/>
<path d="M1540 226 c0 -3 5 -17 10 -32 10 -25 9 -26 -12 -20 -13 4 -35 9 -50
12 -28 6 -28 6 -17 -27 17 -49 33 -62 24 -20 -6 30 -5 33 11 27 31 -12 74 -19
74 -12 0 12 -29 76 -34 76 -4 0 -6 -2 -6 -4z"/>
<path d="M782 150 c-5 -22 -7 -42 -3 -44 17 -10 81 -23 81 -17 0 5 -14 12 -31
17 -33 10 -36 30 -4 27 18 -2 18 -1 -3 10 -30 17 -17 28 27 22 39 -6 19 7 -30
18 -24 6 -27 3 -37 -33z"/>
<path d="M1415 145 c3 -22 11 -44 17 -50 7 -7 8 2 3 30 -3 22 -11 45 -17 50
-7 7 -8 -2 -3 -30z"/>
<path d="M917 122 c-34 -36 -34 -43 1 -36 20 4 34 0 46 -11 9 -10 19 -15 22
-13 7 7 -21 81 -32 85 -6 2 -22 -9 -37 -25z m43 -13 c0 -5 -7 -9 -15 -9 -15 0
-20 12 -9 23 8 8 24 -1 24 -14z"/>
<path d="M1252 143 c-20 -4 -23 -10 -20 -41 3 -34 6 -37 37 -40 18 -2 39 2 45
8 8 10 2 11 -26 6 -31 -6 -38 -4 -38 9 0 9 9 15 23 16 13 0 16 2 7 6 -8 2 -22
7 -30 10 -9 3 0 10 25 18 38 12 25 17 -23 8z"/>
<path d="M1103 133 c-8 -2 -13 -22 -13 -44 0 -38 1 -39 34 -39 52 0 66 9 66
41 0 39 -43 60 -87 42z m74 -29 c7 -19 -21 -44 -49 -44 -13 0 -18 8 -18 30 0
27 3 30 30 30 19 0 33 -6 37 -16z"/>
</g>
</svg>
